<svg width="11" height="12" viewBox="0 0 11 12" fill="none" xmlns="http://www.w3.org/2000/svg">
<path d="M5.5063 11.503C5.3502 11.5039 5.19736 11.4583 5.06728 11.372C4.9372 11.2857 4.83576 11.1626 4.7759 11.0185C4.71604 10.8743 4.70047 10.7156 4.73117 10.5625C4.76188 10.4095 4.83747 10.269 4.9483 10.1591L9.1136 6.00166L4.9483 1.84422C4.81955 1.69388 4.75227 1.50048 4.75991 1.30269C4.76755 1.1049 4.84955 0.917271 4.98951 0.777305C5.12948 0.63734 5.3171 0.555345 5.5149 0.547705C5.71269 0.540065 5.90608 0.607344 6.05643 0.736095L10.7719 5.45152C10.9182 5.59877 11.0004 5.79796 11.0004 6.00559C11.0004 6.21321 10.9182 6.4124 10.7719 6.55965L6.05643 11.2751C5.91005 11.4203 5.71247 11.5021 5.5063 11.503Z" fill="#011C39"/>
<path d="M0.790475 11.503C0.634375 11.5039 0.481541 11.4583 0.351458 11.372C0.221376 11.2857 0.119938 11.1626 0.0600784 11.0184C0.000218572 10.8743 -0.0153514 10.7155 0.0153537 10.5625C0.0460587 10.4094 0.121647 10.269 0.232483 10.1591L4.39778 6.00162L0.232483 1.84418C0.0844942 1.69619 0.00135492 1.49548 0.00135492 1.28619C0.00135492 1.0769 0.0844942 0.876187 0.232483 0.728198C0.380472 0.58021 0.581187 0.49707 0.790475 0.49707C0.999763 0.49707 1.20048 0.58021 1.34847 0.728198L6.0639 5.44363C6.21027 5.59088 6.29243 5.79006 6.29243 5.99769C6.29243 6.20531 6.21027 6.4045 6.0639 6.55175L1.34847 11.2672C1.27568 11.3414 1.18888 11.4005 1.0931 11.441C0.997318 11.4815 0.894456 11.5025 0.790475 11.503Z" fill="#011C39"/>
</svg>
