<svg width="10" height="11" viewBox="0 0 10 11" fill="none" xmlns="http://www.w3.org/2000/svg">
<path d="M5.00523 10.5029C4.86333 10.5037 4.72439 10.4622 4.60613 10.3838C4.48787 10.3053 4.39566 10.1934 4.34124 10.0624C4.28682 9.93131 4.27267 9.78701 4.30058 9.64787C4.32849 9.50873 4.39721 9.38106 4.49797 9.28113L8.2846 5.50164L4.49797 1.72215C4.38092 1.58548 4.31976 1.40966 4.32671 1.22985C4.33365 1.05004 4.40819 0.87947 4.53543 0.752229C4.66267 0.624988 4.83324 0.550447 5.01306 0.543502C5.19287 0.536556 5.36868 0.597718 5.50536 0.714765L9.79211 5.00152C9.92518 5.13538 9.99987 5.31646 9.99987 5.50521C9.99987 5.69396 9.92518 5.87504 9.79211 6.0089L5.50536 10.2957C5.37228 10.4276 5.19267 10.5021 5.00523 10.5029Z" fill="white"/>
<path d="M0.718614 10.5027C0.576705 10.5035 0.437765 10.462 0.319508 10.3836C0.201251 10.3051 0.109035 10.1932 0.0546167 10.0622C0.000198702 9.93112 -0.0139558 9.78682 0.0139579 9.64768C0.0418715 9.50854 0.110589 9.38087 0.211348 9.28094L3.99798 5.50145L0.211348 1.72196C0.0768129 1.58743 0.00123175 1.40496 0.00123175 1.2147C0.00123175 1.02444 0.0768129 0.841966 0.211348 0.707431C0.345883 0.572896 0.528352 0.497314 0.718614 0.497314C0.908875 0.497314 1.09134 0.572896 1.22588 0.707431L5.51263 4.99418C5.6457 5.12805 5.72039 5.30913 5.72039 5.49788C5.72039 5.68663 5.6457 5.86771 5.51263 6.00157L1.22588 10.2883C1.15971 10.3558 1.0808 10.4095 0.993727 10.4463C0.906652 10.4831 0.813142 10.5023 0.718614 10.5027Z" fill="white"/>
</svg>
