<svg width="250" height="120" viewBox="0 0 250 120" fill="none" xmlns="http://www.w3.org/2000/svg">
<rect width="250" height="120" rx="4" fill="#FFD550"/>
<path d="M82.4664 78.1037C82.193 78.1037 81.9606 78.0338 81.7692 77.894C81.5778 77.7542 81.4821 77.5845 81.4821 77.3848V60.8199H73.8945C73.6211 60.8199 73.3887 60.75 73.1973 60.6102C73.0059 60.4704 72.9102 60.3007 72.9102 60.101V57.8843C72.9102 57.6647 73.0059 57.485 73.1973 57.3452C73.3887 57.2054 73.6211 57.1355 73.8945 57.1355H94.8116C95.1124 57.1355 95.3585 57.2054 95.5499 57.3452C95.7413 57.485 95.837 57.6647 95.837 57.8843V60.101C95.837 60.3007 95.7413 60.4704 95.5499 60.6102C95.3585 60.75 95.1124 60.8199 94.8116 60.8199H87.2651V77.3848C87.2651 77.5845 87.1694 77.7542 86.978 77.894C86.7866 78.0338 86.5405 78.1037 86.2397 78.1037H82.4664Z" fill="#020231"/>
<path d="M97.7672 78.1037C97.4938 78.1037 97.2614 78.0338 97.07 77.894C96.8786 77.7542 96.7829 77.5845 96.7829 77.3848V63.2762C96.7829 63.0565 96.8786 62.8768 97.07 62.737C97.2614 62.5972 97.4938 62.5273 97.7672 62.5273H101.089C101.363 62.5273 101.595 62.5972 101.787 62.737C102.005 62.8768 102.115 63.0565 102.115 63.2762V64.5043C102.744 63.8653 103.55 63.376 104.535 63.0365C105.546 62.697 106.708 62.5273 108.021 62.5273H109.702C110.003 62.5273 110.235 62.5972 110.4 62.737C110.591 62.8768 110.687 63.0465 110.687 63.2462V65.4029C110.687 65.6026 110.591 65.7724 110.4 65.9122C110.235 66.052 110.003 66.1218 109.702 66.1218H106.503C105.191 66.1218 104.165 66.3914 103.427 66.9306C102.716 67.4698 102.361 68.2087 102.361 69.1473V77.3848C102.361 77.5845 102.265 77.7542 102.074 77.894C101.882 78.0338 101.636 78.1037 101.335 78.1037H97.7672Z" fill="#020231"/>
<path d="M119.758 78.4032C118.336 78.4032 117.051 78.2035 115.903 77.8041C114.754 77.3848 113.838 76.8356 113.155 76.1566C112.499 75.4577 112.171 74.6789 112.171 73.8202C112.171 72.4223 112.936 71.314 114.467 70.4952C116.026 69.6565 118.077 69.0973 120.619 68.8178L126.238 68.2187V67.5896C126.238 66.7509 125.951 66.1019 125.377 65.6426C124.803 65.1833 123.819 64.9536 122.424 64.9536C121.44 64.9536 120.633 65.1034 120.004 65.4029C119.403 65.6825 118.952 66.0619 118.651 66.5412C118.432 66.8008 118.118 66.9306 117.707 66.9306H114.467C114.167 66.9306 113.934 66.8707 113.77 66.7509C113.633 66.6311 113.565 66.4713 113.565 66.2716C113.592 65.9521 113.77 65.5627 114.098 65.1034C114.426 64.6441 114.946 64.2048 115.657 63.7854C116.368 63.3461 117.284 62.9766 118.405 62.6771C119.526 62.3775 120.879 62.2278 122.465 62.2278C124.188 62.2278 125.637 62.3875 126.813 62.707C128.016 63.0066 128.973 63.416 129.684 63.9352C130.394 64.4544 130.914 65.0635 131.242 65.7624C131.57 66.4613 131.734 67.2002 131.734 67.979V77.3848C131.734 77.5845 131.639 77.7542 131.447 77.894C131.256 78.0338 131.023 78.1037 130.75 78.1037H127.428C127.127 78.1037 126.881 78.0338 126.689 77.894C126.525 77.7542 126.443 77.5845 126.443 77.3848V76.2165C126.088 76.5959 125.609 76.9554 125.008 77.2949C124.406 77.6144 123.668 77.884 122.793 78.1037C121.946 78.3034 120.934 78.4032 119.758 78.4032ZM121.153 75.5575C122.11 75.5575 122.971 75.4078 123.736 75.1082C124.529 74.8087 125.145 74.3494 125.582 73.7303C126.047 73.0913 126.279 72.2925 126.279 71.3339V70.7049L122.178 71.1842C120.565 71.3639 119.362 71.6535 118.569 72.0528C117.776 72.4522 117.379 72.9415 117.379 73.5206C117.379 73.9599 117.557 74.3394 117.912 74.6589C118.295 74.9584 118.774 75.1881 119.348 75.3478C119.922 75.4876 120.524 75.5575 121.153 75.5575Z" fill="#020231"/>
<path d="M137.98 78.1037C137.707 78.1037 137.474 78.0338 137.283 77.894C137.092 77.7542 136.996 77.5845 136.996 77.3848V63.2462C136.996 63.0465 137.092 62.8768 137.283 62.737C137.474 62.5972 137.707 62.5273 137.98 62.5273H141.343C141.617 62.5273 141.849 62.5972 142.041 62.737C142.232 62.8768 142.328 63.0465 142.328 63.2462V64.4743C143.039 63.8353 143.941 63.3061 145.035 62.8868C146.156 62.4474 147.536 62.2278 149.177 62.2278C150.845 62.2278 152.294 62.5073 153.525 63.0665C154.755 63.6057 155.698 64.3745 156.354 65.373C157.038 66.3715 157.38 67.5696 157.38 68.9675V77.3848C157.38 77.5845 157.284 77.7542 157.093 77.894C156.901 78.0338 156.669 78.1037 156.396 78.1037H152.786C152.513 78.1037 152.28 78.0338 152.089 77.894C151.898 77.7542 151.802 77.5845 151.802 77.3848V69.1473C151.802 67.989 151.405 67.0804 150.613 66.4214C149.847 65.7624 148.726 65.4329 147.249 65.4329C145.828 65.4329 144.693 65.7624 143.845 66.4214C142.998 67.0804 142.574 67.989 142.574 69.1473V77.3848C142.574 77.5845 142.478 77.7542 142.287 77.894C142.095 78.0338 141.863 78.1037 141.589 78.1037H137.98Z" fill="#020231"/>
<path d="M170.669 78.4032C169.029 78.4032 167.621 78.2634 166.445 77.9838C165.297 77.7043 164.353 77.3548 163.615 76.9354C162.877 76.5161 162.33 76.0967 161.974 75.6773C161.619 75.258 161.428 74.9085 161.4 74.6289C161.373 74.4093 161.455 74.2395 161.646 74.1197C161.865 73.9799 162.097 73.91 162.343 73.91H165.584C165.693 73.91 165.789 73.92 165.871 73.94C165.953 73.96 166.062 74.0199 166.199 74.1197C166.554 74.3394 166.923 74.569 167.306 74.8087C167.716 75.0483 168.195 75.258 168.742 75.4377C169.289 75.5975 169.972 75.6773 170.792 75.6773C171.859 75.6773 172.747 75.5276 173.458 75.228C174.197 74.9085 174.566 74.4592 174.566 73.8801C174.566 73.4607 174.402 73.1212 174.074 72.8616C173.773 72.602 173.199 72.3724 172.351 72.1727C171.503 71.953 170.3 71.7233 168.742 71.4837C167.21 71.2241 165.939 70.8946 164.927 70.4952C163.916 70.0958 163.164 69.5966 162.672 68.9975C162.179 68.3984 161.933 67.6995 161.933 66.9007C161.933 66.1218 162.248 65.383 162.877 64.684C163.533 63.9651 164.49 63.376 165.748 62.9167C167.033 62.4574 168.619 62.2278 170.505 62.2278C171.982 62.2278 173.267 62.3675 174.361 62.6471C175.454 62.9067 176.357 63.2362 177.068 63.6356C177.806 64.035 178.366 64.4444 178.749 64.8638C179.132 65.2631 179.337 65.6126 179.364 65.9122C179.392 66.1318 179.31 66.3116 179.118 66.4513C178.927 66.5712 178.708 66.6311 178.462 66.6311H175.427C175.29 66.6311 175.167 66.6111 175.058 66.5712C174.948 66.5312 174.839 66.4813 174.73 66.4214C174.429 66.2217 174.101 66.012 173.745 65.7923C173.39 65.5727 172.952 65.383 172.433 65.2232C171.941 65.0435 171.285 64.9536 170.464 64.9536C169.425 64.9536 168.632 65.1234 168.085 65.4628C167.539 65.7824 167.265 66.1917 167.265 66.691C167.265 67.0305 167.388 67.33 167.634 67.5896C167.908 67.8293 168.441 68.0589 169.234 68.2786C170.027 68.4982 171.23 68.7279 172.843 68.9675C174.675 69.2072 176.124 69.5666 177.191 70.0459C178.284 70.5052 179.05 71.0444 179.487 71.6634C179.952 72.2625 180.185 72.9315 180.185 73.6704C180.185 74.569 179.815 75.3778 179.077 76.0967C178.366 76.8156 177.3 77.3848 175.878 77.8041C174.484 78.2035 172.747 78.4032 170.669 78.4032Z" fill="#020231"/>
<path d="M185.444 78.1037C185.17 78.1037 184.938 78.0338 184.746 77.894C184.555 77.7542 184.459 77.5845 184.459 77.3848V57.5548C184.459 57.3551 184.555 57.1854 184.746 57.0456C184.938 56.9058 185.17 56.8359 185.444 56.8359H188.848C189.121 56.8359 189.354 56.9058 189.545 57.0456C189.736 57.1854 189.832 57.3551 189.832 57.5548V77.3848C189.832 77.5845 189.736 77.7542 189.545 77.894C189.354 78.0338 189.121 78.1037 188.848 78.1037H185.444Z" fill="#020231"/>
<path d="M204.706 78.4032C202.518 78.4032 200.673 78.1236 199.169 77.5645C197.692 77.0053 196.558 76.2165 195.765 75.1981C194.999 74.1796 194.562 72.9914 194.452 71.6335C194.425 71.274 194.411 70.8347 194.411 70.3155C194.411 69.7963 194.425 69.3569 194.452 68.9975C194.562 67.6196 195.013 66.4314 195.806 65.4329C196.626 64.4144 197.774 63.6256 199.251 63.0665C200.755 62.5073 202.573 62.2278 204.706 62.2278C206.839 62.2278 208.643 62.5073 210.12 63.0665C211.624 63.6256 212.772 64.4144 213.565 65.4329C214.385 66.4314 214.85 67.6196 214.959 68.9975C214.987 69.3569 215 69.7963 215 70.3155C215 70.8347 214.987 71.274 214.959 71.6335C214.85 72.9914 214.399 74.1796 213.606 75.1981C212.84 76.2165 211.706 77.0053 210.202 77.5645C208.725 78.1236 206.893 78.4032 204.706 78.4032ZM204.706 75.4377C206.155 75.4377 207.276 75.1082 208.069 74.4492C208.862 73.7702 209.299 72.7817 209.381 71.4837C209.409 71.1842 209.422 70.7948 209.422 70.3155C209.422 69.8362 209.409 69.4468 209.381 69.1473C209.299 67.8692 208.862 66.8907 208.069 66.2117C207.276 65.5327 206.155 65.1933 204.706 65.1933C203.257 65.1933 202.136 65.5327 201.343 66.2117C200.55 66.8907 200.112 67.8692 200.03 69.1473C200.003 69.4468 199.989 69.8362 199.989 70.3155C199.989 70.7948 200.003 71.1842 200.03 71.4837C200.112 72.7817 200.55 73.7702 201.343 74.4492C202.136 75.1082 203.257 75.4377 204.706 75.4377Z" fill="#020231"/>
<path d="M49.3897 68.6189C48.2404 69.4099 46.9695 69.9756 45.6075 70.306L44.2455 70.6314C44.1594 70.6515 44.0682 70.6615 43.9822 70.6615C43.5771 70.6615 43.2024 70.4412 43.01 70.0707C42.7771 69.6201 42.8936 69.0795 43.2834 68.754L50.8327 62.4861C49.6682 62.8716 48.5492 63.2421 47.4859 63.5925C45.5467 64.2333 43.805 64.804 42.3012 65.2947C41.4911 66.2309 41.0404 67.5876 41.7138 69.53L42.1948 70.4762C42.1948 70.4762 48.7264 83.6629 48.9695 84.0785C49.8353 85.5503 51.4454 86.5416 53.2935 86.5416C55.3036 86.5416 57.0403 85.3651 57.8301 83.6679C57.9719 83.3676 69.1212 61.1795 69.1212 61.1795L69.1313 61.1594L70.1085 59.237C70.5996 58.1106 70.9743 56.9291 71.2275 55.6975C69.2123 56.3684 67.2073 57.0392 65.2326 57.695L49.3796 68.6139L49.3897 68.6189Z" fill="#020231"/>
<path d="M47.1183 80.3888C48.1158 82.3913 48.8905 83.9433 48.9715 84.0785C49.8373 85.5503 51.4474 86.5416 53.2955 86.5416C55.3056 86.5416 57.0423 85.3651 57.8322 83.6679C57.9739 83.3676 69.1232 61.1795 69.1232 61.1795L69.1333 61.1594L70.1105 59.237C70.6017 58.1106 70.9763 56.9291 71.2295 55.6975C69.6953 56.2082 68.1612 56.7188 66.6473 57.2244C64.8802 61.5649 58.9461 74.0608 47.1133 80.3838L47.1183 80.3888Z" fill="black"/>
<path d="M53.3036 34C43.1923 34 35 42.1003 35 52.0979C35 54.3608 35.4202 56.5285 36.1899 58.5261C36.5088 59.262 37.7038 61.2645 41.1113 61.0493L44.3113 59.6725C43.7746 58.476 43.4759 57.1493 43.4759 55.7526C43.4759 50.3858 47.8758 46.0402 53.2986 46.0402C57.3441 46.0402 60.8225 48.4583 62.3263 51.9177L71.1566 48.1179C69.3288 40.0376 62.0276 34 53.3036 34Z" fill="#020231"/>
<path d="M62.3262 51.9177L71.1565 48.1179C70.9135 47.0415 70.5692 46.0002 70.1388 45.0039C67.1363 46.3556 63.8959 47.8175 60.625 49.2893C61.3237 50.0653 61.9009 50.9514 62.3212 51.9227L62.3262 51.9177Z" fill="url(#paint0_linear_8_309)"/>
<path d="M53.3036 34C43.1923 34 35 42.1003 35 52.0979C35 53.1843 35.0962 54.2506 35.2835 55.287C35.1367 52.4834 39.643 37.4494 54.0479 38.5357C60.539 39.0264 65.5162 43.6122 66.5136 49.8501L71.1566 48.1179C69.3288 40.0376 62.0276 34 53.3036 34Z" fill="url(#paint1_linear_8_309)"/>
<path d="M41.1109 61.0493L44.3109 59.6725C43.9312 58.8265 43.6729 57.9103 43.5565 56.9541C41.0502 58.0755 38.8527 59.0618 37.1211 59.8277C37.8654 60.5286 39.1059 61.1744 41.116 61.0443L41.1109 61.0493Z" fill="url(#paint2_linear_8_309)"/>
<path d="M45.3089 69.0846C46.5139 68.7942 47.6481 68.2886 48.6658 67.5877L60.934 59.137C58.5746 59.923 56.291 60.6789 54.129 61.3948L44.6912 69.2297L45.3038 69.0796L45.3089 69.0846Z" fill="white"/>
<path d="M55.5568 60.2132L52.8884 62.426C54.858 61.7702 56.9846 61.0643 59.2074 60.3234L62.9339 57.7551C60.3719 58.6062 57.8909 59.4323 55.5568 60.2082V60.2132Z" fill="white"/>
<path d="M105.262 41.9601C104.619 40.8988 103.059 40.268 101.049 39.9226C100.796 39.8775 100.538 39.8375 100.275 39.8074C97.4645 39.4369 93.9659 39.5471 90.8823 39.7924C89.2773 39.9176 87.7127 40.308 86.2343 40.9439L39.6423 60.9993C40.8271 61.1745 42.3917 61.0393 44.4372 60.3084L86.7406 42.1003C88.0925 41.5146 89.5203 41.1641 90.9836 41.049C93.3937 40.8587 95.5456 40.7937 97.3785 40.8487L89.171 43.7975C88.776 43.9376 88.5735 44.3682 88.7153 44.7587C88.8267 45.0641 89.1203 45.2543 89.4292 45.2543C89.5153 45.2543 89.6013 45.2393 89.6874 45.2093L100.827 41.2042C100.857 41.1942 100.887 41.1791 100.918 41.1641C102.619 41.4545 103.738 41.9301 104.153 42.5809C104.133 42.666 103.991 43.0766 102.872 43.9527C102.138 44.5334 101.308 44.984 100.406 45.2843C96.4266 46.621 81.3584 51.6324 67.237 56.3283L63.5105 58.8966C78.685 53.8502 96.4215 47.9477 100.811 46.4759C101.854 46.1304 102.816 45.6098 103.667 44.9389C104.189 44.5284 105.434 43.5471 105.434 42.5609C105.434 42.3556 105.378 42.1554 105.262 41.9601Z" fill="white"/>
<path d="M41.7576 66.1257C43.3778 65.59 46.1271 64.6738 49.5904 63.5224L52.2587 61.3096C48.9322 62.416 46.0461 63.3722 43.8943 64.0881C43.0791 64.5136 42.2284 65.1594 41.7626 66.1257H41.7576Z" fill="white"/>
<path d="M44.6912 69.2296L45.3038 69.0794C46.5089 68.789 47.643 68.2834 48.6607 67.5825L70.4327 52.5885C70.6099 52.4634 70.4631 52.193 70.2605 52.2731L60.4125 56.2381C60.3163 56.2782 60.2252 56.3283 60.1442 56.3983L44.6912 69.2246V69.2296Z" fill="white"/>
<defs>
<linearGradient id="paint0_linear_8_309" x1="65.6629" y1="47.6823" x2="67.4035" y2="51.1276" gradientUnits="userSpaceOnUse">
<stop stop-color="#03032E"/>
<stop offset="1" stop-color="#7373AE"/>
</linearGradient>
<linearGradient id="paint1_linear_8_309" x1="54.5846" y1="45.1091" x2="61.3302" y2="33.408" gradientUnits="userSpaceOnUse">
<stop stop-color="#121213"/>
<stop offset="1" stop-color="#020231"/>
</linearGradient>
<linearGradient id="paint2_linear_8_309" x1="41.6679" y1="60.3434" x2="43.8762" y2="63.6557" gradientUnits="userSpaceOnUse">
<stop stop-color="#121213"/>
<stop offset="1"/>
</linearGradient>
</defs>
</svg>
